<?xml version="1.0" encoding="utf-8"?>
<!-- Generator: Adobe Illustrator 28.0.0, SVG Export Plug-In . SVG Version: 6.00 Build 0)  -->
<svg version="1.1" id="Layer_1" xmlns="http://www.w3.org/2000/svg" xmlns:xlink="http://www.w3.org/1999/xlink" x="0px" y="0px"
	 viewBox="0 0 360 150.7" style="enable-background:new 0 0 360 150.7;" xml:space="preserve">
<style type="text/css">
	.st0{fill:#00003C;}
</style>
<g>
	<g>
		<g>
			<path class="st0" d="M105.7,82.7v16.8H62.8V82.7h10.5l-4.1-13.1H36l-4.1,13.1h10.2v16.8H0V82.7h10.8l22.6-65.9H22V0h44.6
				l28.3,82.7H105.7z M63.8,52.6l-11.2-35l-11.2,35H63.8z"/>
			<path class="st0" d="M134.3,80.1c0,2.3,0.9,3.1,3.1,3.1h13.4v16.2h-17.6c-12.6,0-18.5-5.8-18.5-18.5V38.7h-11.4V22.7H115V0h19
				v22.7h16.8v15.9h-16.5V80.1z"/>
			<path class="st0" d="M204.2,82.9v16.6h-41.8V82.9h11.4V14.5h-11.4V0h31v82.9H204.2z"/>
			<path class="st0" d="M288.4,82.9v16.6h-29.8v-9.3c-5.7,5.8-10.1,9.3-24,9.3c-14.8,0-20.6-5.8-20.6-21.7
				c0-16.1,7.5-21.6,19.9-23.3c6.3-0.9,15.2-1.8,24.7-2.3V41.9c0-2.3-0.9-3.1-3.1-3.1h-16.5c-2.3,0-3.1,0.9-3.1,3.1v4.5h-19.3v-5.3
				c0-12.6,5.8-18.5,18.5-18.5h24.7c12.6,0,18.5,5.8,18.5,18.5v41.6H288.4z M258.5,64.7c-3.7,0.4-15.9,2.4-20.3,3.8
				c-1.3,0.4-5,1.4-5,7.2c0,5.4,3.5,6.9,7.7,7c3.7,0,15.2-3.4,17.6-5.4C258.5,77.3,258.5,67.7,258.5,64.7z"/>
			<path class="st0" d="M335.8,38.1h-14.9c-2.3,0-3.1,0.9-3.1,5.8c0,5.7,0.6,6.5,4.3,7.1l21.2,3.4c12.2,2,16.8,5.8,16.8,21.6
				c0,17.6-5.8,23.4-18.5,23.4h-25.6c-12.6,0-18.5-5.8-18.5-18.5v-7h19.3v5.7c0,2.3,0.9,3.1,3.1,3.1h15.6c4.3,0,6.1,0.3,6.1-6.2
				c0-6.4-1.5-6.4-5.2-6.9l-21.2-3.4c-12.2-2-16.8-5.8-16.8-20.9c0-16.9,5.8-22.7,18.5-22.7h22.9c12.6,0,18.5,5.8,18.5,18.5v5.7H339
				v-5.7C339,38.9,338.1,38.1,335.8,38.1z"/>
		</g>
		<g>
			<path class="st0" d="M185.4,132.2l-5.9,1.2c-0.4-2.3-2.3-3.4-4.3-3.4c-2,0-3.3,1.1-3.3,2.5c0,1,0.4,1.7,2,2l5.1,1.1
				c4.2,1,6.7,3.3,6.7,7.1c0,5.2-4.6,7.9-10.1,7.9c-5.5,0-10.1-2.6-10.7-7.4l6.2-1.2c0.6,2.5,2.4,3.6,4.8,3.6c2.3,0,3.6-1,3.6-2.5
				c0-1.1-0.5-1.8-2.3-2.2l-5.1-1.1c-3.5-0.8-6.6-2.6-6.6-7.1c0-4.8,4-7.7,9.7-7.7C180.7,125.1,184.5,127.7,185.4,132.2z"/>
			<path class="st0" d="M208.9,150.7c-7.3,0-13-5.6-13-12.8c0-7.2,5.7-12.8,13-12.8c6,0,11.2,3.6,12.3,9.4l-5.9,1.4
				c-0.8-3.5-3.3-5.3-6.4-5.3c-3.9,0-7,3.1-7,7.3c0,4.2,3.1,7.3,7,7.3c3.1,0,5.6-1.8,6.4-5.4l5.9,1.2
				C220.2,147.1,215.2,150.7,208.9,150.7z"/>
			<path class="st0" d="M248.7,150.1v-9.7h-10.3v9.7h-6v-24.5h6v9.5h10.3v-9.5h6v24.5H248.7z"/>
			<path class="st0" d="M292,137.9c0,7.1-5.7,12.8-13.1,12.8c-7.3,0-13.1-5.6-13.1-12.8c0-7.2,5.7-12.8,13.1-12.8
				C286.2,125.1,292,130.7,292,137.9z M285.9,137.9c0-4.2-3-7.3-7-7.3c-4,0-7,3.1-7,7.3c0,4.2,3,7.2,7,7.2
				C282.9,145.2,285.9,142.1,285.9,137.9z"/>
			<path class="st0" d="M328.3,137.9c0,7.1-5.7,12.8-13.1,12.8s-13.1-5.6-13.1-12.8c0-7.2,5.7-12.8,13.1-12.8
				S328.3,130.7,328.3,137.9z M322.3,137.9c0-4.2-3-7.3-7-7.3c-4,0-7,3.1-7,7.3c0,4.2,3,7.2,7,7.2
				C319.3,145.2,322.3,142.1,322.3,137.9z"/>
			<path class="st0" d="M339.4,150.1v-24.5h6v19.2h12.1v5.3H339.4z"/>
		</g>
	</g>
</g>
</svg>
